<?xml version="1.0" encoding="iso-8859-1"?>
<!-- Generator: Adobe Illustrator 18.0.0, SVG Export Plug-In . SVG Version: 6.00 Build 0)  -->
<!DOCTYPE svg PUBLIC "-//W3C//DTD SVG 1.1//EN" "http://www.w3.org/Graphics/SVG/1.1/DTD/svg11.dtd">
<svg version="1.1" id="Capa_1" xmlns="http://www.w3.org/2000/svg" xmlns:xlink="http://www.w3.org/1999/xlink" x="0px" y="0px"
	 viewBox="0 0 457.553 457.553" style="enable-background:new 0 0 457.553 457.553;" xml:space="preserve">
<path d="M386.396,157.789h-17.804V81.731c0-45.07-36.66-81.731-81.73-81.731H170.675c-45.07,0-81.73,36.661-81.73,81.731v76.058
	H71.157c-23.706,0-42.927,19.221-42.927,42.928v213.909c0,23.705,19.221,42.927,42.927,42.927h315.239
	c23.706,0,42.927-19.222,42.927-42.927V200.717C429.323,177.01,410.102,157.789,386.396,157.789z M260.343,326.314v44.691
	c0,17.433-14.134,31.567-31.567,31.567c-17.432,0-31.567-14.134-31.567-31.567v-44.691c-12.754-9.618-21.115-24.747-21.115-41.956
	c0-29.094,23.574-52.684,52.683-52.684c29.102,0,52.684,23.59,52.684,52.684C281.46,301.567,273.099,316.696,260.343,326.314z
	 M305.459,157.789h-153.38V81.731c0-10.258,8.338-18.597,18.596-18.597h116.187c10.258,0,18.597,8.338,18.597,18.597V157.789z"/>
<g>
</g>
<g>
</g>
<g>
</g>
<g>
</g>
<g>
</g>
<g>
</g>
<g>
</g>
<g>
</g>
<g>
</g>
<g>
</g>
<g>
</g>
<g>
</g>
<g>
</g>
<g>
</g>
<g>
</g>
</svg>
